<svg preserveAspectRatio="none" width="100%" height="100%" overflow="visible" style="display: block;" viewBox="0 0 139.966 32.0833" fill="none" xmlns="http://www.w3.org/2000/svg">
<g id="Group">
<path id="Vector" d="M32.9305 31.5337V20.5101C32.9305 18.2097 31.8616 17.0494 29.7466 17.0494C27.6202 17.0494 26.5513 18.1996 26.5513 20.5101V31.5337H20.2859V20.5101C20.2859 18.2097 19.2398 17.0494 17.1475 17.0494C15.0211 17.0494 13.9636 18.1996 13.9636 20.5101V31.5337H7.69819V19.8587C7.69819 17.4565 8.63062 15.6345 10.4955 14.4029C12.1329 13.3036 14.3616 12.7438 17.1589 12.7438C19.9903 12.7438 22.0825 13.3952 23.4243 14.6981C24.5842 13.3952 26.6878 12.7438 29.7466 12.7438C32.5439 12.7438 34.7612 13.2934 36.3987 14.4029C38.2635 15.6345 39.1959 17.4565 39.1959 19.8587V31.5337H32.9305Z" fill="var(--fill-0, #F98012)"/>
<path id="Vector_2" d="M109.742 31.4828V6.65293e-08H116.019V31.4828H109.742Z" fill="var(--fill-0, #F98012)"/>
<path id="Vector_3" d="M101.748 31.4828V29.6303C101.191 30.3021 100.236 30.8313 98.8938 31.2385C97.6998 31.6049 96.5627 31.7881 95.4825 31.7881C92.4919 31.7881 90.0926 30.8721 88.2846 29.0297C86.4766 27.1975 85.5669 24.9175 85.5669 22.21C85.5669 19.533 86.4539 17.2936 88.2277 15.492C89.7969 13.894 92.3668 12.7845 95.3119 12.7845C98.6322 12.7845 100.577 13.9041 101.748 15.1867V6.65293e-08H107.854V31.4828H101.748ZM101.748 20.9987C101.748 20.0012 101.213 19.0342 100.156 18.1181C99.0984 17.202 97.9955 16.744 96.8811 16.744C95.2778 16.744 94.0042 17.3344 93.0718 18.4947C92.2531 19.533 91.8437 20.8053 91.8437 22.3016C91.8437 23.7775 92.2531 25.0295 93.0718 26.0575C94.0042 27.2586 95.2778 27.8592 96.8811 27.8592C97.8476 27.8592 98.9051 27.452 100.042 26.6275C101.179 25.8132 101.748 24.9684 101.748 24.093V20.9987Z" fill="var(--fill-0, #F98012)"/>
<path id="Vector_4" d="M73.7525 31.9815C70.58 31.9815 67.9533 31.0756 65.8837 29.274C63.8142 27.4724 62.7794 25.1516 62.7794 22.3016C62.7794 19.4617 63.8142 17.141 65.8837 15.3393C67.9533 13.5377 70.58 12.6318 73.7525 12.6318C76.925 12.6318 79.5631 13.5377 81.644 15.3393C83.7362 17.141 84.7824 19.4719 84.7824 22.3016C84.7824 25.1414 83.7362 27.4622 81.644 29.274C79.5517 31.0756 76.925 31.9815 73.7525 31.9815ZM73.7525 17.141C72.2401 17.141 71.0803 17.6499 70.2616 18.678C69.4542 19.706 69.0449 20.9173 69.0449 22.3321C69.0449 23.747 69.4201 24.9379 70.182 25.9048C71.0462 27.0143 72.2401 27.564 73.7525 27.564C75.2648 27.564 76.4474 27.0143 77.323 25.9048C78.119 24.9277 78.5169 23.7368 78.5169 22.3321C78.5169 20.9173 78.1417 19.7264 77.3798 18.7594C76.5043 17.6804 75.2989 17.141 73.7525 17.141Z" fill="var(--fill-0, #F98012)"/>
<path id="Vector_5" d="M51.0673 31.9815C47.8948 31.9815 45.2681 31.0756 43.1986 29.274C41.129 27.4724 40.0943 25.1516 40.0943 22.3016C40.0943 19.4617 41.129 17.141 43.1986 15.3393C45.2681 13.5377 47.8948 12.6318 51.0673 12.6318C54.2398 12.6318 56.8665 13.5377 58.9588 15.3393C61.0511 17.141 62.0972 19.4719 62.0972 22.3016C62.0972 25.1414 61.0511 27.4622 58.9588 29.274C56.8779 31.0756 54.2398 31.9815 51.0673 31.9815ZM51.0673 17.141C49.555 17.141 48.3951 17.6499 47.5764 18.678C46.7691 19.706 46.3597 20.9173 46.3597 22.3321C46.3597 23.747 46.7349 24.9379 47.4968 25.9048C48.361 27.0143 49.555 27.564 51.0673 27.564C52.5797 27.564 53.7622 27.0143 54.6378 25.9048C55.4338 24.9277 55.8318 23.7368 55.8318 22.3321C55.8318 20.9173 55.4565 19.7264 54.6947 18.7594C53.8305 17.6804 52.6251 17.141 51.0673 17.141Z" fill="var(--fill-0, #F98012)"/>
<path id="Vector_6" d="M123.444 24.0116C123.58 25.345 125.513 28.2256 128.709 28.2256C131.813 28.2256 133.28 26.6174 133.359 25.9659L139.966 25.915C139.25 27.8897 136.316 32.0833 128.595 32.0833C125.388 32.0833 122.443 31.1876 120.34 29.4063C118.236 27.6149 117.178 25.2839 117.178 22.4135C117.178 19.4414 118.236 17.0799 120.34 15.319C122.455 13.5682 125.184 12.6827 128.549 12.6827C132.211 12.6827 135.065 13.7718 137.112 15.9399C139.011 17.9451 139.966 20.6323 139.966 24.0116H123.444ZM133.689 20.5508C133.428 19.3498 132.87 18.3624 132.006 17.5888C131.028 16.7542 129.914 16.3369 128.64 16.3369C127.333 16.3369 126.241 16.7338 125.365 17.5379C124.49 18.3421 123.899 19.3396 123.603 20.5508H133.689Z" fill="var(--fill-0, #F98012)"/>
<path id="Vector_7" d="M19.8652 11.8989L26.0851 7.82744L26.0055 7.58315C14.7823 8.81478 9.67675 9.69015 1.63744e-05 14.7083L0.0909845 14.9322L0.864214 14.9424C0.795988 15.6345 0.670907 17.3445 0.830101 19.9299C-0.238775 22.7087 0.807359 24.602 1.78527 26.6581C1.94446 24.5205 1.92172 22.1794 1.19397 19.8485C1.04615 17.2937 1.17123 15.604 1.23946 14.9525L7.65271 15.0034C7.65271 15.0034 7.60723 16.7338 7.84602 18.3726C13.577 20.1742 19.3421 18.3624 22.4009 13.9245C21.5367 13.0593 19.8652 11.8989 19.8652 11.8989Z" fill="var(--fill-0, #333333)"/>
</g>
</svg>
