<svg width="14" height="12" overflow="visible" style="display: block;" viewBox="0 0 14 12" fill="none" xmlns="http://www.w3.org/2000/svg">
<path id="Vector" d="M8 0.8C8 0.3575 7.55312 0 7 0C6.44687 0 6 0.3575 6 0.8V6.0675L4.70625 5.0325C4.31562 4.72 3.68125 4.72 3.29062 5.0325C2.9 5.345 2.9 5.8525 3.29062 6.165L6.29062 8.565C6.68125 8.8775 7.31562 8.8775 7.70625 8.565L10.7062 6.165C11.0969 5.8525 11.0969 5.345 10.7062 5.0325C10.3156 4.72 9.68125 4.72 9.29062 5.0325L8 6.0675V0.8ZM2 8C0.896875 8 0 8.7175 0 9.6V10.4C0 11.2825 0.896875 12 2 12H12C13.1031 12 14 11.2825 14 10.4V9.6C14 8.7175 13.1031 8 12 8H10.5344L8.76562 9.415C7.79062 10.195 6.20625 10.195 5.23125 9.415L3.46562 8H2ZM11.5 9.4C11.9156 9.4 12.25 9.6675 12.25 10C12.25 10.3325 11.9156 10.6 11.5 10.6C11.0844 10.6 10.75 10.3325 10.75 10C10.75 9.6675 11.0844 9.4 11.5 9.4Z" fill="var(--fill-0, black)"/>
</svg>
