<svg width="22.875" height="31.0333" overflow="visible" style="display: block;" viewBox="0 0 22.875 31.0333" fill="none" xmlns="http://www.w3.org/2000/svg">
<path id="Vector (Stroke)" fill-rule="evenodd" clip-rule="evenodd" d="M4.08311 1.63325C2.73009 1.63325 1.63325 2.73009 1.63325 4.08311V25.347C1.63325 26.7 2.73009 27.7968 4.08312 27.7968H5.73574C6.18675 27.7968 6.55236 28.1624 6.55236 28.6135C6.55236 29.0645 6.18675 29.4301 5.73574 29.4301H4.08312C1.82807 29.4301 0 27.602 0 25.347V4.08311C0 1.82807 1.82807 0 4.08311 0H13.8767C13.8831 0 13.8895 2.44346e-05 13.8959 7.32064e-05L14.1988 5.98696e-05C15.2862 1.19739e-05 16.3286 0.433674 17.0951 1.20492L21.688 5.82628C22.4483 6.59128 22.875 7.626 22.875 8.70454V25.347C22.875 27.602 21.0469 29.4301 18.7919 29.4301H17.1589C16.7079 29.4301 16.3423 29.0645 16.3423 28.6135C16.3423 28.1624 16.7079 27.7968 17.1589 27.7968H18.7919C20.1449 27.7968 21.2418 26.7 21.2418 25.347V9.01465C21.2418 8.56364 20.8761 8.19803 20.4251 8.19803H17.1432C15.7902 8.19803 14.6933 7.10118 14.6933 5.74816V2.44987C14.6933 2.00256 14.3337 1.63925 13.8878 1.63332L12.9001 1.63336C12.8954 1.63336 12.8908 1.63332 12.8861 1.63325H4.08311ZM16.3266 2.74853V5.74816C16.3266 6.19916 16.6922 6.56478 17.1432 6.56478H20.1193L16.3266 2.74853ZM11.4375 13.8953C11.6541 13.8953 11.8618 13.9814 12.0149 14.1345L16.9147 19.0343C17.2336 19.3532 17.2336 19.8702 16.9147 20.1891C16.5958 20.5081 16.0787 20.5081 15.7598 20.1891L12.2541 16.6835V30.2166C12.2541 30.6676 11.8885 31.0333 11.4375 31.0333C10.9865 31.0333 10.6209 30.6676 10.6209 30.2166V16.6835L7.11521 20.1891C6.79629 20.5081 6.27924 20.5081 5.96033 20.1891C5.64142 19.8702 5.64142 19.3532 5.96033 19.0343L10.8601 14.1345C11.0132 13.9814 11.2209 13.8953 11.4375 13.8953Z" fill="var(--fill-0, #F90086)"/>
</svg>
