<svg width="27.0732" height="31.6161" overflow="visible" style="display: block;" viewBox="0 0 27.0732 31.6161" fill="none" xmlns="http://www.w3.org/2000/svg">
<path id="Vector" d="M18.1208 24.9738V26.1195C18.1208 27.3349 17.6379 28.5006 16.7785 29.36C15.919 30.2195 14.7534 30.7023 13.5379 30.7023C12.3225 30.7023 11.1568 30.2195 10.2973 29.36C9.43789 28.5006 8.95505 27.3349 8.95505 26.1195V24.9738M25.8314 22.6415C23.9925 20.3909 22.6943 19.2452 22.6943 13.0404C22.6943 7.35842 19.7928 5.33408 17.4047 4.35092C17.0875 4.22059 16.7889 3.92127 16.6922 3.59546C16.2733 2.16976 15.0989 0.913775 13.5379 0.913775C11.9769 0.913775 10.8018 2.17048 10.3872 3.59689C10.2905 3.92629 9.99192 4.22059 9.67471 4.35092C7.28374 5.33551 4.38509 7.35269 4.38509 13.0404C4.38151 19.2452 3.08327 20.3909 1.2444 22.6415C0.482499 23.5738 1.14988 24.9738 2.48249 24.9738H24.6005C25.9259 24.9738 26.589 23.5695 25.8314 22.6415Z" stroke="var(--stroke-0, #0F6CBF)" stroke-width="1.82755" stroke-linecap="round" stroke-linejoin="round"/>
</svg>
