<svg width="24" height="24" overflow="visible" style="display: block;" viewBox="0 0 24 24" fill="none" xmlns="http://www.w3.org/2000/svg">
<g id="Simple Solid Chart 1">
<path id="Vector" d="M9.6 5.4C9.6 4.40625 10.4063 3.6 11.4 3.6H12.6C13.5938 3.6 14.4 4.40625 14.4 5.4V18.6C14.4 19.5937 13.5938 20.4 12.6 20.4H11.4C10.4063 20.4 9.6 19.5937 9.6 18.6V5.4ZM2.4 12.6C2.4 11.6062 3.20625 10.8 4.2 10.8H5.4C6.39375 10.8 7.2 11.6062 7.2 12.6V18.6C7.2 19.5937 6.39375 20.4 5.4 20.4H4.2C3.20625 20.4 2.4 19.5937 2.4 18.6V12.6ZM18.6 6H19.8C20.7938 6 21.6 6.80625 21.6 7.8V18.6C21.6 19.5937 20.7938 20.4 19.8 20.4H18.6C17.6063 20.4 16.8 19.5937 16.8 18.6V7.8C16.8 6.80625 17.6063 6 18.6 6Z" fill="var(--fill-0, white)"/>
</g>
</svg>
