<svg width="31" height="31" overflow="visible" style="display: block;" viewBox="0 0 31 31" fill="none" xmlns="http://www.w3.org/2000/svg">
<g id="Icon">
<path id="Vector" d="M19.375 2.58333H7.75C7.06486 2.58333 6.40778 2.85551 5.92331 3.33997C5.43884 3.82444 5.16667 4.48152 5.16667 5.16667V25.8333C5.16667 26.5185 5.43884 27.1756 5.92331 27.66C6.40778 28.1445 7.06486 28.4167 7.75 28.4167H23.25C23.9351 28.4167 24.5922 28.1445 25.0767 27.66C25.5612 27.1756 25.8333 26.5185 25.8333 25.8333V9.04167L19.375 2.58333Z" stroke="var(--stroke-0, white)" stroke-width="2" stroke-linecap="round" stroke-linejoin="round"/>
<path id="Vector_2" d="M18.0833 2.58333V7.75C18.0833 8.43514 18.3555 9.09222 18.84 9.57669C19.3244 10.0612 19.9815 10.3333 20.6667 10.3333H25.8333" stroke="var(--stroke-0, white)" stroke-width="2" stroke-linecap="round" stroke-linejoin="round"/>
<path id="Vector_3" d="M12.9157 11.625H10.3333" stroke="var(--stroke-0, white)" stroke-width="2" stroke-linecap="round" stroke-linejoin="round"/>
<path id="Vector_4" d="M20.6667 16.7917H10.3333" stroke="var(--stroke-0, white)" stroke-width="2" stroke-linecap="round" stroke-linejoin="round"/>
<path id="Vector_5" d="M20.6667 21.9583H10.3333" stroke="var(--stroke-0, white)" stroke-width="2" stroke-linecap="round" stroke-linejoin="round"/>
</g>
</svg>
