<svg width="773.96" height="577.312" overflow="visible" style="display: block;" viewBox="0 0 773.96 577.312" fill="none" xmlns="http://www.w3.org/2000/svg">
<path id="Blue arrow" d="M312.586 573.371L312.87 571.391L312.769 571.377L312.667 571.373L312.586 573.371ZM747.694 0L742.477 22.4969L764.568 15.7671L747.694 0ZM3.64684 393.882C3.01992 392.973 1.77447 392.744 0.865046 393.371C-0.0443747 393.998 -0.273387 395.243 0.353533 396.152L2.00018 395.017L3.64684 393.882ZM3.88277 401.184C4.52444 402.083 5.77346 402.292 6.67253 401.65C7.57161 401.008 7.78029 399.759 7.13862 398.86L5.5107 400.022L3.88277 401.184ZM15.5631 410.205C14.888 409.331 13.632 409.169 12.7578 409.844C11.8835 410.52 11.7221 411.776 12.3972 412.65L13.9802 411.427L15.5631 410.205ZM20.0302 422.213C20.733 423.065 21.9935 423.187 22.8457 422.484C23.6979 421.781 23.819 420.52 23.1162 419.668L21.5732 420.941L20.0302 422.213ZM32.3088 430.403C31.575 429.578 30.3109 429.503 29.4853 430.237C28.6597 430.971 28.5853 432.235 29.3191 433.061L30.814 431.732L32.3088 430.403ZM37.5881 442.075C38.3474 442.877 39.6133 442.912 40.4155 442.153C41.2177 441.394 41.2525 440.128 40.4932 439.325L39.0407 440.7L37.5881 442.075ZM50.3949 449.415C49.6072 448.641 48.3409 448.652 47.5665 449.44C46.7922 450.227 46.803 451.494 47.5907 452.268L48.9928 450.842L50.3949 449.415ZM56.447 460.713C57.2578 461.463 58.5232 461.413 59.2732 460.603C60.0233 459.792 59.974 458.526 59.1631 457.776L57.8051 459.244L56.447 460.713ZM69.7066 467.192C68.8701 466.471 67.6072 466.564 66.8859 467.401C66.1645 468.237 66.2579 469.5 67.0944 470.222L68.4005 468.707L69.7066 467.192ZM76.484 478.08C77.3414 478.777 78.601 478.646 79.2974 477.789C79.9939 476.932 79.8635 475.672 79.0061 474.976L77.7451 476.528L76.484 478.08ZM90.1279 483.703C89.2477 483.036 87.9932 483.209 87.3259 484.089C86.6587 484.969 86.8314 486.224 87.7116 486.891L88.9198 485.297L90.1279 483.703ZM97.5705 494.146C98.4692 494.788 99.7184 494.58 100.36 493.681C101.002 492.782 100.794 491.533 99.8956 490.891L98.733 492.519L97.5705 494.146ZM111.532 498.922C110.613 498.309 109.371 498.557 108.759 499.477C108.146 500.396 108.394 501.637 109.314 502.25L110.423 500.586L111.532 498.922ZM119.588 508.897C120.524 509.484 121.758 509.202 122.346 508.267C122.933 507.331 122.651 506.097 121.715 505.509L120.652 507.203L119.588 508.897ZM133.805 512.837C132.852 512.279 131.627 512.6 131.069 513.554C130.511 514.507 130.832 515.732 131.785 516.29L132.795 514.563L133.805 512.837ZM142.427 522.327C143.395 522.859 144.611 522.506 145.143 521.538C145.675 520.57 145.322 519.354 144.354 518.822L143.39 520.574L142.427 522.327ZM156.858 525.452C155.875 524.949 154.67 525.339 154.167 526.323C153.665 527.307 154.055 528.511 155.038 529.014L155.948 527.233L156.858 525.452ZM166.001 534.437C166.998 534.914 168.192 534.493 168.669 533.497C169.146 532.501 168.725 531.306 167.728 530.829L166.865 532.633L166.001 534.437ZM180.593 536.752C179.583 536.305 178.402 536.762 177.955 537.772C177.508 538.782 177.965 539.963 178.975 540.41L179.784 538.581L180.593 536.752ZM190.226 545.215C191.247 545.635 192.416 545.149 192.837 544.127C193.257 543.106 192.771 541.937 191.749 541.516L190.987 543.366L190.226 545.215ZM204.914 546.709C203.88 546.32 202.726 546.841 202.336 547.875C201.947 548.908 202.468 550.062 203.502 550.452L204.208 548.581L204.914 546.709ZM214.998 554.618C216.042 554.981 217.182 554.429 217.544 553.386C217.907 552.342 217.355 551.203 216.312 550.84L215.655 552.729L214.998 554.618ZM229.72 555.27C228.666 554.94 227.544 555.527 227.214 556.581C226.883 557.635 227.47 558.757 228.524 559.087L229.122 557.179L229.72 555.27ZM240.271 562.59C241.334 562.891 242.44 562.273 242.74 561.211C243.041 560.148 242.424 559.042 241.361 558.742L240.816 560.666L240.271 562.59ZM255.039 562.368C253.966 562.103 252.882 562.758 252.618 563.83C252.353 564.902 253.008 565.986 254.08 566.251L254.559 564.309L255.039 562.368ZM265.972 568.994C267.052 569.225 268.115 568.537 268.347 567.457C268.578 566.377 267.89 565.314 266.81 565.083L266.391 567.038L265.972 568.994ZM280.725 567.775C279.636 567.588 278.602 568.318 278.414 569.407C278.227 570.496 278.957 571.53 280.046 571.717L280.385 569.746L280.725 567.775ZM292.139 573.557C293.234 573.701 294.238 572.929 294.382 571.834C294.526 570.739 293.754 569.735 292.659 569.591L292.399 571.574L292.139 573.557ZM306.668 571.033C305.566 570.954 304.609 571.783 304.529 572.884C304.45 573.986 305.279 574.943 306.38 575.023L306.524 573.028L306.668 571.033ZM318.117 576.085C319.215 576.206 320.203 575.414 320.324 574.316C320.445 573.218 319.652 572.23 318.554 572.109L318.336 574.097L318.117 576.085ZM332.255 573.125C331.152 573.08 330.221 573.938 330.176 575.042C330.131 576.146 330.989 577.077 332.093 577.121L332.174 575.123L332.255 573.125ZM344.092 577.3C345.196 577.289 346.083 576.385 346.072 575.281C346.061 574.176 345.157 573.29 344.053 573.3L344.072 575.3L344.092 577.3ZM357.708 572.812C356.605 572.879 355.766 573.827 355.833 574.929C355.9 576.032 356.848 576.872 357.95 576.805L357.829 574.808L357.708 572.812ZM369.867 575.843C370.967 575.733 371.768 574.753 371.658 573.653C371.548 572.554 370.568 571.753 369.469 571.863L369.668 573.853L369.867 575.843ZM383.218 570.192C382.125 570.347 381.364 571.36 381.52 572.454C381.676 573.547 382.688 574.307 383.782 574.152L383.5 572.172L383.218 570.192ZM395.447 572.297C396.535 572.106 397.262 571.07 397.072 569.982C396.881 568.894 395.844 568.166 394.756 568.357L395.102 570.327L395.447 572.297ZM408.303 565.73C407.222 565.96 406.532 567.021 406.761 568.102C406.991 569.182 408.052 569.873 409.133 569.643L408.718 567.687L408.303 565.73ZM420.762 567.002C421.835 566.742 422.495 565.661 422.235 564.587C421.975 563.514 420.894 562.854 419.821 563.114L420.291 565.058L420.762 567.002ZM433.126 559.668C432.061 559.962 431.436 561.063 431.73 562.128C432.023 563.193 433.125 563.818 434.189 563.524L433.658 561.596L433.126 559.668ZM445.708 560.185C446.765 559.864 447.361 558.747 447.04 557.69C446.719 556.633 445.602 556.037 444.545 556.358L445.126 558.272L445.708 560.185ZM457.597 552.182C456.55 552.533 455.986 553.667 456.338 554.714C456.69 555.762 457.823 556.325 458.871 555.973L458.234 554.078L457.597 552.182ZM470.168 552.023C471.206 551.646 471.742 550.498 471.365 549.46C470.988 548.422 469.84 547.886 468.802 548.263L469.485 550.143L470.168 552.023ZM481.645 543.394C480.618 543.8 480.114 544.961 480.52 545.989C480.925 547.016 482.087 547.52 483.115 547.114L482.38 545.254L481.645 543.394ZM494.162 542.601C495.179 542.171 495.656 540.998 495.226 539.98C494.797 538.962 493.623 538.486 492.606 538.916L493.384 540.758L494.162 542.601ZM505.217 533.389C504.211 533.846 503.766 535.032 504.223 536.038C504.68 537.043 505.865 537.488 506.871 537.031L506.044 535.21L505.217 533.389ZM517.66 531.98C518.655 531.501 519.073 530.305 518.593 529.31C518.113 528.315 516.918 527.898 515.923 528.377L516.791 530.179L517.66 531.98ZM528.26 522.226C527.278 522.732 526.892 523.938 527.398 524.92C527.904 525.902 529.11 526.288 530.092 525.782L529.176 524.004L528.26 522.226ZM540.609 520.21C541.579 519.682 541.937 518.468 541.409 517.498C540.881 516.527 539.667 516.169 538.696 516.697L539.653 518.454L540.609 520.21ZM550.721 509.943C549.766 510.497 549.44 511.72 549.993 512.676C550.547 513.632 551.771 513.958 552.726 513.404L551.724 511.673L550.721 509.943ZM562.952 507.323C563.895 506.747 564.193 505.517 563.618 504.574C563.042 503.631 561.812 503.333 560.869 503.908L561.911 505.616L562.952 507.323ZM572.545 496.566C571.618 497.167 571.353 498.405 571.953 499.332C572.554 500.259 573.792 500.524 574.719 499.923L573.632 498.245L572.545 496.566ZM584.629 493.339C585.542 492.717 585.778 491.473 585.156 490.56C584.534 489.647 583.29 489.411 582.377 490.033L583.503 491.686L584.629 493.339ZM593.666 482.113C592.771 482.76 592.569 484.01 593.216 484.906C593.862 485.801 595.113 486.003 596.008 485.356L594.837 483.735L593.666 482.113ZM605.572 478.274C606.451 477.606 606.623 476.351 605.955 475.471C605.287 474.592 604.033 474.42 603.153 475.088L604.362 476.681L605.572 478.274ZM614.014 466.598C613.154 467.291 613.017 468.55 613.71 469.41C614.402 470.271 615.661 470.407 616.522 469.715L615.268 468.157L614.014 466.598ZM625.704 462.139C626.548 461.425 626.653 460.163 625.94 459.32C625.226 458.477 623.964 458.371 623.121 459.085L624.413 460.612L625.704 462.139ZM633.511 450.033C632.689 450.77 632.62 452.035 633.358 452.857C634.096 453.679 635.36 453.748 636.182 453.01L634.847 451.521L633.511 450.033ZM644.945 444.945C645.748 444.187 645.784 442.921 645.026 442.118C644.268 441.315 643.002 441.278 642.199 442.037L643.572 443.491L644.945 444.945ZM652.07 432.43C651.29 433.212 651.292 434.479 652.075 435.259C652.857 436.038 654.123 436.036 654.903 435.254L653.487 433.842L652.07 432.43ZM663.203 426.707C663.962 425.904 663.926 424.638 663.124 423.879C662.321 423.12 661.055 423.156 660.297 423.958L661.75 425.333L663.203 426.707ZM669.599 413.809C668.866 414.635 668.941 415.899 669.766 416.632C670.592 417.366 671.857 417.291 672.59 416.465L671.094 415.137L669.599 413.809ZM680.383 407.444C681.093 406.598 680.984 405.337 680.138 404.626C679.292 403.916 678.031 404.025 677.32 404.871L678.851 406.158L680.383 407.444ZM686 394.194C685.317 395.063 685.468 396.32 686.336 397.003C687.204 397.685 688.462 397.535 689.144 396.667L687.572 395.43L686 394.194ZM696.384 387.186C697.042 386.298 696.856 385.046 695.969 384.388C695.081 383.73 693.829 383.916 693.171 384.804L694.778 385.995L696.384 387.186ZM701.173 373.623C700.546 374.532 700.774 375.777 701.682 376.405C702.591 377.033 703.837 376.805 704.465 375.896L702.819 374.759L701.173 373.623ZM711.106 365.971C711.707 365.044 711.443 363.806 710.516 363.205C709.589 362.604 708.35 362.869 707.75 363.796L709.428 364.883L711.106 365.971ZM715.02 352.143C714.451 353.09 714.758 354.319 715.706 354.887C716.653 355.456 717.881 355.148 718.45 354.201L716.735 353.172L715.02 352.143ZM724.447 343.858C724.987 342.895 724.643 341.676 723.679 341.136C722.715 340.597 721.496 340.941 720.957 341.904L722.702 342.881L724.447 343.858ZM727.447 329.817C726.941 330.799 727.328 332.005 728.31 332.51C729.293 333.015 730.498 332.628 731.004 331.646L729.225 330.732L727.447 329.817ZM736.306 320.935C736.781 319.938 736.357 318.744 735.36 318.27C734.362 317.795 733.169 318.219 732.694 319.216L734.5 320.076L736.306 320.935ZM738.37 306.72C737.931 307.733 738.398 308.911 739.411 309.349C740.425 309.788 741.602 309.322 742.041 308.308L740.205 307.514L738.37 306.72ZM746.612 297.276C747.018 296.249 746.516 295.087 745.489 294.68C744.462 294.273 743.3 294.776 742.893 295.803L744.752 296.54L746.612 297.276ZM747.721 282.939C747.352 283.98 747.897 285.123 748.938 285.492C749.979 285.862 751.122 285.317 751.491 284.276L749.606 283.608L747.721 282.939ZM755.302 272.982C755.638 271.93 755.058 270.804 754.006 270.467C752.954 270.13 751.829 270.71 751.492 271.762L753.397 272.372L755.302 272.982ZM755.452 258.57C755.154 259.634 755.774 260.738 756.837 261.036C757.901 261.334 759.005 260.714 759.303 259.65L757.378 259.11L755.452 258.57ZM762.336 248.159C762.601 247.086 761.947 246.002 760.875 245.737C759.803 245.471 758.719 246.125 758.453 247.198L760.395 247.678L762.336 248.159ZM761.533 233.712C761.307 234.793 762 235.853 763.081 236.08C764.162 236.306 765.222 235.614 765.448 234.532L763.491 234.122L761.533 233.712ZM767.699 222.915C767.893 221.828 767.168 220.789 766.081 220.596C764.994 220.402 763.955 221.127 763.761 222.214L765.73 222.565L767.699 222.915ZM765.946 208.556C765.79 209.65 766.551 210.662 767.645 210.818C768.738 210.973 769.751 210.212 769.906 209.118L767.926 208.837L765.946 208.556ZM771.398 197.355C771.521 196.258 770.731 195.268 769.633 195.145C768.535 195.022 767.546 195.813 767.423 196.91L769.411 197.133L771.398 197.355ZM768.72 183.206C768.634 184.307 769.458 185.269 770.559 185.355C771.661 185.44 772.622 184.617 772.708 183.515L770.714 183.361L768.72 183.206ZM773.461 171.568C773.514 170.465 772.663 169.527 771.56 169.473C770.457 169.42 769.519 170.271 769.465 171.374L771.463 171.471L773.461 171.568ZM769.906 157.71C769.888 158.814 770.769 159.724 771.873 159.741C772.978 159.759 773.887 158.878 773.905 157.774L771.905 157.742L769.906 157.71ZM773.93 145.767C773.917 144.663 773.012 143.778 771.907 143.791C770.803 143.804 769.918 144.71 769.931 145.814L771.93 145.791L773.93 145.767ZM769.557 132.132C769.604 133.235 770.537 134.092 771.641 134.045C772.744 133.997 773.6 133.064 773.553 131.961L771.555 132.046L769.557 132.132ZM772.888 120.08C772.812 118.978 771.857 118.146 770.755 118.222C769.654 118.298 768.822 119.253 768.898 120.355L770.893 120.217L772.888 120.08ZM767.734 106.515C767.842 107.614 768.822 108.417 769.921 108.308C771.02 108.199 771.823 107.22 771.714 106.12L769.724 106.318L767.734 106.515ZM770.41 94.429C770.274 93.3328 769.276 92.5543 768.179 92.69C767.083 92.8258 766.305 93.8245 766.44 94.9207L768.425 94.6749L770.41 94.429ZM764.545 81.2125C764.712 82.3044 765.732 83.0546 766.824 82.8881C767.916 82.7216 768.666 81.7014 768.5 80.6094L766.523 80.911L764.545 81.2125ZM766.561 68.8256C766.369 67.7379 765.331 67.0117 764.244 67.2037C763.156 67.3956 762.43 68.433 762.622 69.5208L764.591 69.1732L766.561 68.8256ZM760.073 56.1057C760.293 57.1881 761.349 57.887 762.431 57.6667C763.514 57.4465 764.213 56.3905 763.992 55.3081L762.032 55.7069L760.073 56.1057ZM761.471 43.5819C761.227 42.5046 760.156 41.8291 759.079 42.0731C758.001 42.317 757.326 43.3881 757.57 44.4654L759.521 44.0237L761.471 43.5819ZM754.362 31.073C754.633 32.144 755.72 32.793 756.791 32.5226C757.862 32.2522 758.511 31.1648 758.24 30.0938L756.301 30.5834L754.362 31.073ZM755.236 18.6838C754.944 17.6186 753.843 16.9917 752.778 17.2838C751.713 17.5758 751.086 18.6761 751.378 19.7414L753.307 19.2126L755.236 18.6838ZM747.544 6.37148C747.861 7.42968 748.976 8.03081 750.034 7.71414C751.092 7.39746 751.693 6.2829 751.377 5.2247L749.461 5.79809L747.544 6.37148ZM2.00018 395.017L0.353533 396.152C1.51946 397.844 2.69598 399.521 3.88277 401.184L5.5107 400.022L7.13862 398.86C5.96441 397.215 4.80038 395.556 3.64684 393.882L2.00018 395.017ZM13.9802 411.427L12.3972 412.65C14.9032 415.895 17.4484 419.083 20.0302 422.213L21.5732 420.941L23.1162 419.668C20.5614 416.57 18.0428 413.416 15.5631 410.205L13.9802 411.427ZM30.814 431.732L29.3191 433.061C32.0416 436.124 34.7989 439.128 37.5881 442.075L39.0407 440.7L40.4932 439.325C37.7323 436.409 35.0033 433.435 32.3088 430.403L30.814 431.732ZM48.9928 450.842L47.5907 452.268C50.514 455.142 53.4672 457.956 56.447 460.713L57.8051 459.244L59.1631 457.776C56.2127 455.047 53.2889 452.26 50.3949 449.415L48.9928 450.842ZM68.4005 468.707L67.0944 470.222C70.2013 472.901 73.3322 475.52 76.484 478.08L77.7451 476.528L79.0061 474.976C75.8843 472.44 72.7834 469.845 69.7066 467.192L68.4005 468.707ZM88.9198 485.297L87.7116 486.891C90.9813 489.369 94.2688 491.787 97.5705 494.146L98.733 492.519L99.8956 490.891C96.6242 488.554 93.3672 486.159 90.1279 483.703L88.9198 485.297ZM110.423 500.586L109.314 502.25C112.729 504.527 116.155 506.742 119.588 508.897L120.652 507.203L121.715 505.509C118.313 503.373 114.917 501.178 111.532 498.922L110.423 500.586ZM132.795 514.563L131.785 516.29C135.331 518.364 138.88 520.376 142.427 522.327L143.39 520.574L144.354 518.822C140.838 516.888 137.32 514.893 133.805 512.837L132.795 514.563ZM155.948 527.233L155.038 529.014C158.701 530.885 162.357 532.693 166.001 534.437L166.865 532.633L167.728 530.829C164.115 529.099 160.49 527.307 156.858 525.452L155.948 527.233ZM179.784 538.581L178.975 540.41C182.746 542.078 186.498 543.679 190.226 545.215L190.987 543.366L191.749 541.516C188.052 539.993 184.332 538.406 180.593 536.752L179.784 538.581ZM204.208 548.581L203.502 550.452C207.37 551.911 211.204 553.299 214.998 554.618L215.655 552.729L216.312 550.84C212.55 549.532 208.748 548.156 204.914 546.709L204.208 548.581ZM229.122 557.179L228.524 559.087C232.497 560.332 236.415 561.498 240.271 562.59L240.816 560.666L241.361 558.742C237.54 557.66 233.657 556.503 229.72 555.27L229.122 557.179ZM254.559 564.309L254.08 566.251C258.133 567.252 262.1 568.165 265.972 568.994L266.391 567.038L266.81 565.083C262.979 564.262 259.052 563.358 255.039 562.368L254.559 564.309ZM280.385 569.746L280.046 571.717C284.226 572.437 288.262 573.049 292.139 573.557L292.399 571.574L292.659 569.591C288.838 569.09 284.854 568.486 280.725 567.775L280.385 569.746ZM306.524 573.028L306.38 575.023C308.49 575.175 310.534 575.29 312.506 575.37L312.586 573.371L312.667 571.373C310.739 571.295 308.738 571.182 306.668 571.033L306.524 573.028ZM312.586 573.371L312.303 575.351C314.211 575.624 316.15 575.869 318.117 576.085L318.336 574.097L318.554 572.109C316.629 571.898 314.734 571.658 312.87 571.391L312.586 573.371ZM332.174 575.123L332.093 577.121C336.003 577.28 340.005 577.34 344.092 577.3L344.072 575.3L344.053 573.3C340.03 573.339 336.095 573.281 332.255 573.125L332.174 575.123ZM357.829 574.808L357.95 576.805C361.86 576.567 365.834 576.247 369.867 575.843L369.668 573.853L369.469 571.863C365.486 572.261 361.564 572.578 357.708 572.812L357.829 574.808ZM383.5 572.172L383.782 574.152C387.627 573.605 391.517 572.986 395.447 572.297L395.102 570.327L394.756 568.357C390.867 569.039 387.02 569.651 383.218 570.192L383.5 572.172ZM408.718 567.687L409.133 569.643C412.978 568.828 416.856 567.947 420.762 567.002L420.291 565.058L419.821 563.114C415.951 564.051 412.11 564.923 408.303 565.73L408.718 567.687ZM433.658 561.596L434.189 563.524C438.008 562.471 441.849 561.359 445.708 560.185L445.126 558.272L444.545 556.358C440.718 557.521 436.911 558.625 433.126 559.668L433.658 561.596ZM458.234 554.078L458.871 555.973C462.624 554.712 466.391 553.396 470.168 552.023L469.485 550.143L468.802 548.263C465.055 549.625 461.319 550.931 457.597 552.182L458.234 554.078ZM482.38 545.254L483.115 547.114C486.791 545.662 490.475 544.157 494.162 542.601L493.384 540.758L492.606 538.916C488.947 540.46 485.293 541.953 481.645 543.394L482.38 545.254ZM506.044 535.21L506.871 537.031C510.468 535.397 514.065 533.714 517.66 531.98L516.791 530.179L515.923 528.377C512.355 530.097 508.786 531.768 505.217 533.389L506.044 535.21ZM529.176 524.004L530.092 525.782C533.603 523.972 537.11 522.115 540.609 520.21L539.653 518.454L538.696 516.697C535.224 518.588 531.744 520.43 528.26 522.226L529.176 524.004ZM551.724 511.673L552.726 513.404C556.146 511.423 559.555 509.396 562.952 507.323L561.911 505.616L560.869 503.908C557.498 505.966 554.114 507.977 550.721 509.943L551.724 511.673ZM573.632 498.245L574.719 499.923C578.038 497.773 581.342 495.579 584.629 493.339L583.503 491.686L582.377 490.033C579.116 492.255 575.837 494.433 572.545 496.566L573.632 498.245ZM594.837 483.735L596.008 485.356C599.216 483.039 602.404 480.678 605.572 478.274L604.362 476.681L603.153 475.088C600.011 477.473 596.848 479.815 593.666 482.113L594.837 483.735ZM615.268 468.157L616.522 469.715C619.607 467.232 622.668 464.707 625.704 462.139L624.413 460.612L623.121 459.085C620.11 461.632 617.074 464.136 614.014 466.598L615.268 468.157ZM634.847 451.521L636.182 453.01C639.131 450.364 642.053 447.676 644.945 444.945L643.572 443.491L642.199 442.037C639.332 444.744 636.435 447.409 633.511 450.033L634.847 451.521ZM653.487 433.842L654.903 435.254C657.702 432.447 660.469 429.598 663.203 426.707L661.75 425.333L660.297 423.958C657.587 426.823 654.844 429.647 652.07 432.43L653.487 433.842ZM671.094 415.137L672.59 416.465C675.224 413.499 677.822 410.492 680.383 407.444L678.851 406.158L677.32 404.871C674.783 407.891 672.209 410.87 669.599 413.809L671.094 415.137ZM687.572 395.43L689.144 396.667C691.597 393.547 694.011 390.387 696.384 387.186L694.778 385.995L693.171 384.804C690.821 387.974 688.43 391.104 686 394.194L687.572 395.43ZM702.819 374.759L704.465 375.896C706.722 372.628 708.936 369.319 711.106 365.971L709.428 364.883L707.75 363.796C705.601 367.111 703.408 370.386 701.173 373.623L702.819 374.759ZM716.735 353.172L718.45 354.201C720.495 350.793 722.495 347.345 724.447 343.858L722.702 342.881L720.957 341.904C719.024 345.356 717.045 348.769 715.02 352.143L716.735 353.172ZM729.225 330.732L731.004 331.646C732.82 328.114 734.588 324.544 736.306 320.935L734.5 320.076L732.694 319.216C730.994 322.787 729.245 326.321 727.447 329.817L729.225 330.732ZM740.205 307.514L742.041 308.308C743.616 304.668 745.14 300.99 746.612 297.276L744.752 296.54L742.893 295.803C741.437 299.478 739.928 303.117 738.37 306.72L740.205 307.514ZM749.606 283.608L751.491 284.276C752.814 280.547 754.085 276.782 755.302 272.982L753.397 272.372L751.492 271.762C750.288 275.523 749.031 279.249 747.721 282.939L749.606 283.608ZM757.378 259.11L759.303 259.65C760.368 255.854 761.38 252.023 762.336 248.159L760.395 247.678L758.453 247.198C757.507 251.022 756.506 254.813 755.452 258.57L757.378 259.11ZM763.491 234.122L765.448 234.532C766.253 230.692 767.004 226.82 767.699 222.915L765.73 222.565L763.761 222.214C763.073 226.079 762.33 229.911 761.533 233.712L763.491 234.122ZM767.926 208.837L769.906 209.118C770.458 205.228 770.956 201.307 771.398 197.355L769.411 197.133L767.423 196.91C766.985 200.823 766.492 204.705 765.946 208.556L767.926 208.837ZM770.714 183.361L772.708 183.515C773.014 179.562 773.266 175.58 773.461 171.568L771.463 171.471L769.465 171.374C769.272 175.348 769.023 179.292 768.72 183.206L770.714 183.361ZM771.905 157.742L773.905 157.774C773.969 153.8 773.977 149.797 773.93 145.767L771.93 145.791L769.931 145.814C769.977 149.807 769.969 153.773 769.906 157.71L771.905 157.742ZM771.555 132.046L773.553 131.961C773.385 128.026 773.163 124.066 772.888 120.08L770.893 120.217L768.898 120.355C769.171 124.307 769.39 128.232 769.557 132.132L771.555 132.046ZM769.724 106.318L771.714 106.12C771.33 102.247 770.896 98.3498 770.41 94.429L768.425 94.6749L766.44 94.9207C766.922 98.8094 767.353 102.674 767.734 106.515L769.724 106.318ZM766.523 80.911L768.5 80.6094C767.904 76.7043 767.258 72.7764 766.561 68.8256L764.591 69.1732L762.622 69.5208C763.314 73.4411 763.955 77.3384 764.545 81.2125L766.523 80.911ZM762.032 55.7069L763.992 55.3081C763.201 51.4209 762.361 47.5122 761.471 43.5819L759.521 44.0237L757.57 44.4654C758.454 48.3673 759.288 52.2474 760.073 56.1057L762.032 55.7069ZM756.301 30.5834L758.24 30.0938C757.285 26.3099 756.284 22.5066 755.236 18.6838L753.307 19.2126L751.378 19.7414C752.419 23.5383 753.413 27.3155 754.362 31.073L756.301 30.5834Z" fill="var(--stroke-0, #69E0FF)"/>
</svg>
