<svg width="14.4" height="19.2" overflow="visible" style="display: block;" viewBox="0 0 14.4 19.2" fill="none" xmlns="http://www.w3.org/2000/svg">
<path id="Vector" d="M2.4 0C1.07625 0 0 1.07625 0 2.4V16.8C0 18.1238 1.07625 19.2 2.4 19.2H12C13.3237 19.2 14.4 18.1238 14.4 16.8V2.4C14.4 1.07625 13.3237 0 12 0H2.4ZM6.6 13.2H7.8C8.46375 13.2 9 13.7363 9 14.4V17.4H5.4V14.4C5.4 13.7363 5.93625 13.2 6.6 13.2ZM3.6 4.2C3.6 3.87 3.87 3.6 4.2 3.6H5.4C5.73 3.6 6 3.87 6 4.2V5.4C6 5.73 5.73 6 5.4 6H4.2C3.87 6 3.6 5.73 3.6 5.4V4.2ZM9 3.6H10.2C10.53 3.6 10.8 3.87 10.8 4.2V5.4C10.8 5.73 10.53 6 10.2 6H9C8.67 6 8.4 5.73 8.4 5.4V4.2C8.4 3.87 8.67 3.6 9 3.6ZM3.6 9C3.6 8.67 3.87 8.4 4.2 8.4H5.4C5.73 8.4 6 8.67 6 9V10.2C6 10.53 5.73 10.8 5.4 10.8H4.2C3.87 10.8 3.6 10.53 3.6 10.2V9ZM9 8.4H10.2C10.53 8.4 10.8 8.67 10.8 9V10.2C10.8 10.53 10.53 10.8 10.2 10.8H9C8.67 10.8 8.4 10.53 8.4 10.2V9C8.4 8.67 8.67 8.4 9 8.4Z" fill="var(--fill-0, #F98012)"/>
</svg>
