<svg preserveAspectRatio="xMidYMid meet" width="12" height="14" overflow="visible" style="display: block;" viewBox="0 0 12 14" fill="none" xmlns="http://www.w3.org/2000/svg">
<g id="&#60;Group&#62;">
<path id="&#60;Path&#62;" d="M10.0227 7.44508C10.03 6.90847 10.1802 6.38232 10.4592 5.9156C10.7383 5.44888 11.1372 5.05674 11.6189 4.77568C11.3129 4.3609 10.9092 4.01955 10.44 3.77875C9.9707 3.53794 9.44873 3.40432 8.91554 3.38848C7.77813 3.27516 6.67547 4.0345 6.09587 4.0345C5.50505 4.0345 4.61266 3.39973 3.65171 3.4185C3.03014 3.43756 2.42437 3.60912 1.89343 3.91647C1.36248 4.22382 0.924464 4.65647 0.622057 5.17228C-0.687904 7.32501 0.289209 10.4888 1.54404 12.2289C2.17186 13.081 2.9056 14.0328 3.86569 13.999C4.80519 13.9621 5.15608 13.4304 6.29013 13.4304C7.41367 13.4304 7.74287 13.999 8.72243 13.9776C9.73056 13.962 10.3657 13.1217 10.9715 12.2616C11.4226 11.6544 11.7697 10.9834 12 10.2734C11.4143 10.0382 10.9145 9.64465 10.5629 9.1417C10.2113 8.63875 10.0234 8.04869 10.0227 7.44508Z" fill="#CED4DA"/>
<path id="&#60;Path&#62;_2" d="M8.17261 2.24416C8.72228 1.61783 8.99309 0.812788 8.92751 0C8.08773 0.0837201 7.31201 0.464683 6.75491 1.06698C6.48253 1.36122 6.27391 1.70353 6.14099 2.07434C6.00806 2.44515 5.95344 2.83719 5.98024 3.22805C6.40028 3.23216 6.81583 3.14574 7.19558 2.97532C7.57534 2.80489 7.9094 2.55489 8.17261 2.24416Z" fill="#CED4DA"/>
</g>
</svg>
