<svg width="100.44" height="27.1983" overflow="visible" style="display: block;" viewBox="0 0 100.44 27.1983" fill="none" xmlns="http://www.w3.org/2000/svg">
<g id="Moodle">
<path id="Vector" d="M88.6166 20.3557C88.8034 21.3192 89.2585 22.1546 89.9796 22.8638C90.7014 23.5712 91.5024 23.9249 92.385 23.9249C92.9983 23.9249 93.6664 23.7554 94.3882 23.4155C95.2708 23.0186 95.7113 22.5516 95.7113 22.0128L100.44 21.9704C99.7725 23.6421 98.6362 24.9454 97.0335 25.8803C95.5367 26.7581 93.8939 27.1983 92.1044 27.1983C89.8058 27.1983 87.9029 26.4399 86.3923 24.9247C84.8825 23.4086 84.128 21.4333 84.128 18.9962C84.128 16.5591 84.8825 14.4705 86.3923 12.9838C87.9029 11.4963 89.8597 10.7525 92.2642 10.7525C94.8825 10.7525 96.9266 11.6736 98.3956 13.5148C99.7586 15.2143 100.44 17.4957 100.44 20.3566H88.6166V20.3557ZM95.9511 17.4231C95.7643 16.4025 95.363 15.5688 94.7496 14.9159C94.0538 14.2084 93.252 13.8539 92.3442 13.8539C91.4363 13.8539 90.6272 14.1929 89.9991 14.8735C89.3711 15.5541 88.951 16.4034 88.7373 17.4239H95.9511V17.4231Z" fill="var(--fill-0, #F98012)"/>
<path id="Vector_2" d="M78.7584 26.6872V0H83.2479V26.6872H78.7584Z" fill="var(--fill-0, #F98012)"/>
<path id="Vector_3" d="M72.8228 26.6872V25.1149C72.4215 25.6814 71.7404 26.1346 70.7787 26.4745C69.9231 26.7858 69.1083 26.9415 68.3334 26.9415C66.1955 26.9415 64.4793 26.1623 63.1832 24.6038C61.8872 23.0462 61.2387 21.1194 61.2387 18.825C61.2387 16.5305 61.8733 14.6608 63.1433 13.1309C64.4116 11.601 66.1017 10.8364 68.2127 10.8364C70.5903 10.8364 72.127 11.5171 72.822 12.8757V0H77.1907V26.6872H72.822H72.8228ZM72.8228 17.8062C72.8228 16.956 72.4419 16.1414 71.6801 15.3621C70.919 14.5829 70.1376 14.1929 69.3358 14.1929C68.1874 14.1929 67.2787 14.6902 66.6107 15.6804C66.0226 16.5599 65.7289 17.6349 65.7289 18.9097C65.7289 20.1845 66.0226 21.2197 66.6107 22.0975C67.2787 23.118 68.1874 23.6274 69.3358 23.6274C70.03 23.6274 70.7853 23.2815 71.6001 22.587C72.415 21.8934 72.8228 21.1782 72.8228 20.4413V17.807V17.8062Z" fill="var(--fill-0, #F98012)"/>
<path id="Vector_4" d="M52.7835 27.1119C50.5118 27.1119 48.635 26.3465 47.1521 24.8166C45.6692 23.2867 44.927 21.3183 44.927 18.9097C44.927 16.5011 45.6692 14.5328 47.1521 13.0037C48.635 11.4738 50.5118 10.7093 52.7835 10.7093C55.0551 10.7093 56.9385 11.4738 58.4344 13.0037C59.9304 14.5336 60.6791 16.5029 60.6791 18.9097C60.6791 21.3166 59.9304 23.2875 58.4344 24.8166C56.9385 26.3465 55.0535 27.1119 52.7835 27.1119ZM52.7835 14.5328C51.7011 14.5328 50.8691 14.9669 50.2884 15.8352C49.7068 16.7044 49.4172 17.7361 49.4172 18.9313C49.4172 20.1265 49.6856 21.1375 50.228 21.9635C50.8495 22.9027 51.7011 23.3714 52.7835 23.3714C53.8659 23.3714 54.7158 22.9027 55.3382 21.9635C55.9059 21.1384 56.1897 20.1265 56.1897 18.9313C56.1897 17.7361 55.9197 16.7243 55.3789 15.8992C54.7566 14.9877 53.8912 14.5319 52.7835 14.5319V14.5328Z" fill="var(--fill-0, #F98012)"/>
<path id="Vector_5" d="M36.5517 27.1119C34.2809 27.1119 32.4032 26.3465 30.9203 24.8166C29.4374 23.2867 28.696 21.3183 28.696 18.9097C28.696 16.5011 29.4374 14.5328 30.9203 13.0037C32.4032 11.4738 34.2809 10.7093 36.5517 10.7093C38.8225 10.7093 40.7059 11.4738 42.2035 13.0037C43.6994 14.5336 44.4474 16.5029 44.4474 18.9097C44.4474 21.3166 43.6994 23.2875 42.2035 24.8166C40.7059 26.3465 38.8225 27.1119 36.5517 27.1119ZM36.5517 14.5328C35.4701 14.5328 34.6381 14.9669 34.0566 15.8352C33.4758 16.7044 33.1846 17.7361 33.1846 18.9313C33.1846 20.1265 33.4546 21.1375 33.9954 21.9635C34.6169 22.9027 35.4701 23.3714 36.5517 23.3714C37.6333 23.3714 38.484 22.9027 39.1064 21.9635C39.6741 21.1384 39.9587 20.1265 39.9587 18.9313C39.9587 17.7361 39.6879 16.7243 39.1472 15.8992C38.5256 14.9877 37.6602 14.5319 36.5517 14.5319V14.5328Z" fill="var(--fill-0, #F98012)"/>
<g id="Group">
<path id="Vector_6" d="M23.5671 26.7365V17.3885C23.5671 15.4339 22.8052 14.4566 21.2832 14.4566C19.7612 14.4566 18.9985 15.4339 18.9985 17.3885V26.7365H14.5107V17.3885C14.5107 15.4339 13.7619 14.4566 12.2652 14.4566C10.7684 14.4566 9.98132 15.4339 9.98132 17.3885V26.7365H5.4927V16.8367C5.4927 14.7974 6.16074 13.2528 7.4968 12.2055C8.67299 11.2706 10.2627 10.8027 12.266 10.8027C14.2693 10.8027 15.793 11.3553 16.7546 12.4597C17.5825 11.3553 19.0915 10.8027 21.2832 10.8027C23.2873 10.8027 24.8754 11.2706 26.0516 12.2055C27.3877 13.2528 28.0557 14.7965 28.0557 16.8367V26.7365H23.5679H23.5671Z" fill="var(--fill-0, #F98012)"/>
<path id="Vector_7" d="M14.1828 10.1065L18.6763 6.6385L18.6192 6.42748C11.014 7.25859 6.56042 8.34137 0 12.4658L0.0595437 12.6716L1.77489 12.6137C3.01226 12.6595 4.29123 12.7226 5.5237 12.7287C5.44377 14.8121 5.5914 15.5524 5.5914 15.5524C9.82716 17.0737 13.8484 15.6847 15.9634 11.7549C15.9634 11.7549 15.1486 10.89 14.1828 10.1065Z" fill="var(--fill-0, #333333)"/>
<path id="Vector_8" d="M9.28148 9.51583C9.25701 9.42243 9.1004 9.38783 8.93238 9.43799C8.8035 9.47605 8.70562 9.55302 8.67626 9.62826C7.16483 10.0598 4.66562 10.8148 2.90622 11.4427L2.79774 11.4816C1.43639 11.9668 0.780594 12.2159 0.739811 12.567C0.553839 14.1626 0.668848 16.2157 0.670479 16.2417L0.685161 16.796C-0.109299 19.1795 0.690871 21.0865 1.36951 22.8309C1.3744 20.6749 1.45678 18.9192 0.882553 16.6871C0.86624 16.3567 0.760203 14.0606 0.931493 12.5921C0.959226 12.3542 1.88175 12.0247 2.85973 11.6762L2.96822 11.6373C4.76595 10.9956 7.33856 10.2207 8.8345 9.79604C8.88996 9.80123 8.9544 9.79517 9.02129 9.77528C9.18931 9.72512 9.30677 9.6101 9.2823 9.51669L9.28148 9.51583Z" fill="var(--fill-0, #333333)"/>
</g>
</g>
</svg>
