<svg width="19" height="20" overflow="visible" style="display: block;" viewBox="0 0 19 20" fill="none" xmlns="http://www.w3.org/2000/svg">
<g id="Search">
<path id="Vector" d="M7.7114 3.48322C4.89297 3.48322 2.60001 5.80928 2.60001 8.6684C2.60001 11.5275 4.89297 13.8536 7.7114 13.8536C10.5298 13.8536 12.8228 11.5275 12.8228 8.6684C12.8228 5.80928 10.5298 3.48322 7.7114 3.48322ZM7.7114 0.890625C11.9458 0.890625 15.3785 4.37285 15.3785 8.6684C15.3785 12.964 11.9458 16.4462 7.7114 16.4462C3.47698 16.4462 0.0443115 12.964 0.0443115 8.6684C0.0443115 4.37285 3.47698 0.890625 7.7114 0.890625Z" fill="var(--fill-0, #194866)"/>
<path id="Vector (Stroke)" fill-rule="evenodd" clip-rule="evenodd" d="M12.4238 13.4441C12.8171 13.0564 13.4502 13.0609 13.8379 13.4542L18.0076 17.684C18.3953 18.0774 18.3907 18.7105 17.9974 19.0982C17.6041 19.4859 16.971 19.4814 16.5833 19.0881L12.4136 14.8583C12.0259 14.465 12.0305 13.8318 12.4238 13.4441Z" fill="var(--fill-0, #194866)"/>
</g>
</svg>
