<svg width="4.94824" height="21.4404" overflow="visible" style="display: block;" viewBox="0 0 4.94824 21.4404" fill="none" xmlns="http://www.w3.org/2000/svg">
<path id="Vector" d="M2.47363 16.4922C3.83993 16.4922 4.94824 17.6005 4.94824 18.9668C4.94808 20.333 3.83983 21.4404 2.47363 21.4404C1.10756 21.4403 0.000159108 20.3329 0 18.9668C0 17.6006 1.10746 16.4923 2.47363 16.4922ZM2.47363 8.24609C3.83977 8.24609 4.94799 9.35365 4.94824 10.7197C4.94824 12.086 3.83993 13.1943 2.47363 13.1943C1.10746 13.1942 0 12.0859 0 10.7197C0.000254172 9.35374 1.10762 8.24623 2.47363 8.24609ZM2.47363 0C3.83984 0 4.9481 1.10746 4.94824 2.47363C4.94824 3.83993 3.83993 4.94824 2.47363 4.94824C1.10746 4.9481 0 3.83984 0 2.47363C0.000139784 1.10755 1.10755 0.000139784 2.47363 0Z" fill="var(--fill-0, #1D2125)"/>
</svg>
