<svg width="24" height="24" overflow="visible" style="display: block;" viewBox="0 0 24 24" fill="none" xmlns="http://www.w3.org/2000/svg">
<g id="cloud-arrow-down-solid-full 1">
<path id="Vector" d="M6.60067 20.4001C3.61942 20.4001 1.20067 17.9814 1.20067 15.0001C1.20067 12.6226 2.73817 10.6051 4.87192 9.88136C4.82317 9.59261 4.80067 9.30011 4.80067 9.00011C4.80067 6.01886 7.21942 3.60011 10.2007 3.60011C12.2782 3.60011 14.0819 4.77386 14.9857 6.49136C15.5182 6.18011 16.1407 6.00011 16.8007 6.00011C18.7882 6.00011 20.4007 7.61261 20.4007 9.60011C20.4007 10.1889 20.2582 10.7476 20.0069 11.2389C21.6569 12.0001 22.8007 13.6651 22.8007 15.6001C22.8007 18.2514 20.6519 20.4001 18.0007 20.4001H6.60067ZM15.3382 14.1376C15.6907 13.7851 15.6907 13.2151 15.3382 12.8664C14.9857 12.5176 14.4157 12.5139 14.0669 12.8664L12.9044 14.0289V10.2001C12.9044 9.70136 12.5032 9.30011 12.0044 9.30011C11.5057 9.30011 11.1044 9.70136 11.1044 10.2001V14.0289L9.94192 12.8664C9.58942 12.5139 9.01942 12.5139 8.67067 12.8664C8.32192 13.2189 8.31817 13.7889 8.67067 14.1376L11.3707 16.8376C11.7232 17.1901 12.2932 17.1901 12.6419 16.8376L15.3419 14.1376H15.3382Z" fill="var(--fill-0, black)"/>
</g>
</svg>
