<svg width="17.5908" height="17.5938" overflow="visible" style="display: block;" viewBox="0 0 17.5908 17.5938" fill="none" xmlns="http://www.w3.org/2000/svg">
<path id="Vector" d="M17.3516 15.211L13.9259 11.7853C13.7713 11.6307 13.5617 11.5448 13.3418 11.5448H12.7818C13.7301 10.3319 14.2936 8.80637 14.2936 7.1468C14.2936 3.19888 11.0947 0 7.1468 0C3.19888 0 0 3.19888 0 7.1468C0 11.0947 3.19888 14.2936 7.1468 14.2936C8.80637 14.2936 10.3319 13.7301 11.5448 12.7818V13.3418C11.5448 13.5617 11.6307 13.7713 11.7853 13.9259L15.211 17.3516C15.534 17.6746 16.0562 17.6746 16.3758 17.3516L17.3482 16.3792C17.6711 16.0562 17.6711 15.534 17.3516 15.211ZM7.1468 11.5448C4.71757 11.5448 2.74877 9.57946 2.74877 7.1468C2.74877 4.71757 4.71414 2.74877 7.1468 2.74877C9.57602 2.74877 11.5448 4.71414 11.5448 7.1468C11.5448 9.57602 9.57946 11.5448 7.1468 11.5448Z" fill="var(--fill-0, #6A737B)"/>
</svg>
