<svg width="17.5921" height="15.3931" overflow="visible" style="display: block;" viewBox="0 0 17.5921 15.3931" fill="none" xmlns="http://www.w3.org/2000/svg">
<path id="Vector" d="M10.4453 13.1941H8.24633C8.10053 13.1941 7.9607 13.252 7.8576 13.3551C7.7545 13.4582 7.69658 13.598 7.69658 13.7438V14.8433C7.69658 14.9892 7.7545 15.129 7.8576 15.2321C7.9607 15.3352 8.10053 15.3931 8.24633 15.3931H10.4453C10.5912 15.3931 10.731 15.3352 10.8341 15.2321C10.9372 15.129 10.9951 14.9892 10.9951 14.8433V13.7438C10.9951 13.598 10.9372 13.4582 10.8341 13.3551C10.731 13.252 10.5912 13.1941 10.4453 13.1941ZM6.04732 10.9951H4.39806V0.549754C4.39806 0.40395 4.34014 0.264118 4.23704 0.161019C4.13394 0.0579203 3.99411 0 3.8483 0H2.7488C2.60299 0 2.46316 0.0579203 2.36006 0.161019C2.25696 0.264118 2.19904 0.40395 2.19904 0.549754V10.9951H0.54978C0.0622174 10.9951 -0.184485 11.5874 0.16186 11.9334L2.91063 15.232C3.01372 15.335 3.15349 15.3928 3.29924 15.3928C3.44498 15.3928 3.58475 15.335 3.68784 15.232L6.43661 11.9334C6.7809 11.5881 6.53591 10.9951 6.04732 10.9951ZM14.8434 4.39803H8.24633C8.10053 4.39803 7.9607 4.45595 7.8576 4.55905C7.7545 4.66215 7.69658 4.80198 7.69658 4.94778V6.04729C7.69658 6.19309 7.7545 6.33293 7.8576 6.43602C7.9607 6.53912 8.10053 6.59704 8.24633 6.59704H14.8434C14.9892 6.59704 15.129 6.53912 15.2321 6.43602C15.3352 6.33293 15.3931 6.19309 15.3931 6.04729V4.94778C15.3931 4.80198 15.3352 4.66215 15.2321 4.55905C15.129 4.45595 14.9892 4.39803 14.8434 4.39803ZM12.6444 8.79606H8.24633C8.10053 8.79606 7.9607 8.85398 7.8576 8.95708C7.7545 9.06018 7.69658 9.20001 7.69658 9.34581V10.4453C7.69658 10.5911 7.7545 10.731 7.8576 10.8341C7.9607 10.9372 8.10053 10.9951 8.24633 10.9951H12.6444C12.7902 10.9951 12.93 10.9372 13.0331 10.8341C13.1362 10.731 13.1941 10.5911 13.1941 10.4453V9.34581C13.1941 9.20001 13.1362 9.06018 13.0331 8.95708C12.93 8.85398 12.7902 8.79606 12.6444 8.79606ZM17.0424 0H8.24633C8.10053 0 7.9607 0.0579203 7.8576 0.161019C7.7545 0.264118 7.69658 0.40395 7.69658 0.549754V1.64926C7.69658 1.79506 7.7545 1.9349 7.8576 2.038C7.9607 2.14109 8.10053 2.19901 8.24633 2.19901H17.0424C17.1882 2.19901 17.328 2.14109 17.4311 2.038C17.5342 1.9349 17.5921 1.79506 17.5921 1.64926V0.549754C17.5921 0.40395 17.5342 0.264118 17.4311 0.161019C17.328 0.0579203 17.1882 0 17.0424 0V0Z" fill="var(--fill-0, #1D2125)"/>
</svg>
