<svg width="22.6944" height="27.8943" overflow="visible" style="display: block;" viewBox="0 0 22.6944 27.8943" fill="none" xmlns="http://www.w3.org/2000/svg">
<g id="&#60;Group&#62;">
<path id="&#60;Path&#62;" d="M18.9549 14.8341C18.9687 13.7649 19.2527 12.7166 19.7805 11.7867C20.3083 10.8568 21.0627 10.0755 21.9736 9.51546C21.3949 8.68903 20.6315 8.00891 19.744 7.52912C18.8566 7.04933 17.8694 6.78309 16.861 6.75154C14.71 6.52575 12.6246 8.03869 11.5285 8.03869C10.4111 8.03869 8.72346 6.77395 6.90611 6.81135C5.73059 6.84932 4.58496 7.19116 3.58084 7.80353C2.57672 8.41591 1.74834 9.27795 1.17643 10.3057C-1.30096 14.5949 0.546951 20.8986 2.92009 24.3657C4.10742 26.0634 5.49507 27.9598 7.31078 27.8926C9.08756 27.8189 9.75115 26.7596 11.8959 26.7596C14.0207 26.7596 14.6433 27.8926 16.4958 27.8498C18.4024 27.8189 19.6036 26.1445 20.7493 24.4307C21.6024 23.221 22.2589 21.8841 22.6944 20.4693C21.5867 20.0008 20.6414 19.2167 19.9765 18.2146C19.3115 17.2125 18.9562 16.0368 18.9549 14.8341V14.8341Z" fill="var(--fill-0, #282828)"/>
<path id="&#60;Path&#62;_2" d="M15.4558 4.47141C16.4953 3.22348 17.0074 1.61948 16.8834 3.59874e-05C15.2952 0.166844 13.8282 0.925894 12.7746 2.12595C12.2595 2.7122 11.865 3.39424 11.6136 4.13306C11.3622 4.87188 11.2589 5.65301 11.3096 6.43178C12.1039 6.43996 12.8898 6.26778 13.608 5.92821C14.3262 5.58865 14.958 5.09054 15.4558 4.47141Z" fill="var(--fill-0, #282828)"/>
</g>
</svg>
