<svg width="16.8" height="18" overflow="visible" style="display: block;" viewBox="0 0 16.8 18" fill="none" xmlns="http://www.w3.org/2000/svg">
<path id="Vector" d="M9.6 1.2C9.6 0.53625 9.06375 0 8.4 0C7.73625 0 7.2 0.53625 7.2 1.2V9.10125L5.6475 7.54875C5.17875 7.08 4.4175 7.08 3.94875 7.54875C3.48 8.0175 3.48 8.77875 3.94875 9.2475L7.54875 12.8475C8.0175 13.3163 8.77875 13.3163 9.2475 12.8475L12.8475 9.2475C13.3162 8.77875 13.3162 8.0175 12.8475 7.54875C12.3787 7.08 11.6175 7.08 11.1487 7.54875L9.6 9.10125V1.2ZM2.4 12C1.07625 12 0 13.0763 0 14.4V15.6C0 16.9238 1.07625 18 2.4 18H14.4C15.7237 18 16.8 16.9238 16.8 15.6V14.4C16.8 13.0763 15.7237 12 14.4 12H12.6412L10.5187 14.1225C9.34875 15.2925 7.4475 15.2925 6.2775 14.1225L4.15875 12H2.4ZM13.8 14.1C14.2987 14.1 14.7 14.5013 14.7 15C14.7 15.4988 14.2987 15.9 13.8 15.9C13.3012 15.9 12.9 15.4988 12.9 15C12.9 14.5013 13.3012 14.1 13.8 14.1Z" fill="var(--fill-0, #282828)"/>
</svg>
