<svg width="29.0649" height="32.5195" overflow="visible" style="display: block;" viewBox="0 0 29.0649 32.5195" fill="none" xmlns="http://www.w3.org/2000/svg">
<g id="Group 1">
<path id="Vector" d="M15.7529 16.2501L0.723644 31.3419C0.589049 31.0786 0.500011 30.7156 0.500011 30.2354V2.27744C0.500011 1.80267 0.586465 1.43666 0.719738 1.16416L15.7529 16.2501Z" fill="var(--fill-0, #282828)" stroke="var(--stroke-0, white)"/>
<path id="Vector_2" d="M27.496 14.8639L27.497 14.8649C28.2854 15.3108 28.5644 15.8323 28.5644 16.2506C28.5642 16.6697 28.2848 17.1941 27.496 17.6461L21.5565 21.0348L16.7958 16.2545L21.5565 11.4743L27.496 14.8639Z" fill="var(--fill-0, #282828)" stroke="var(--stroke-0, white)"/>
<path id="Vector_3" d="M20.7728 21.4825L2.94664 31.6661C2.2718 32.0434 1.73504 32.0851 1.35093 31.9454L16.2718 16.963L20.7728 21.4825Z" fill="var(--fill-0, #282828)" stroke="var(--stroke-0, white)"/>
<path id="Vector_4" d="M1.34898 0.576172C1.73346 0.432554 2.2712 0.471695 2.94175 0.856445L2.94273 0.857422L20.7718 11.0273L16.2718 15.5469L1.34898 0.576172Z" fill="var(--fill-0, #282828)" stroke="var(--stroke-0, white)"/>
</g>
</svg>
